# xmcd CD database file
#
# Track frame offsets:
#	187
#	18562
#	32437
#	47587
#	88262
#	98737
#	113287
#	129187
#	142987
#	160537
#	181462
#	193762
#
# Disc length: 2760 seconds
#
# Revision: 0
# Processed by: cddbd v1.5.1PL0 Copyright (c) Steve Scherf et al.
# Submitted via: CDex 1.51
#
DISCID=8b0ac60c
DTITLE=タブラトゥーラ - TABLATURA4
DYEAR=1900
DGENRE=New Age
TTITLE0=でんでれでん
TTITLE1=ロビン
TTITLE2=カーニバル
TTITLE3=聖母マリア賛歌
TTITLE4=愛に死す
TTITLE5=愛の神々よ
TTITLE6=水車
TTITLE7=星の夜
TTITLE8=アクアリウム
TTITLE9=海賊の唄
TTITLE10=狐の嫁入り
TTITLE11=大サーカス
EXTD=
EXTT0=
EXTT1=
EXTT2=
EXTT3=
EXTT4=
EXTT5=
EXTT6=
EXTT7=
EXTT8=
EXTT9=
EXTT10=
EXTT11=
PLAYORDER=
